# xmcd
#
# Track frame offsets: 
#        150
#        12252
#        24892
#        35575
#        47430
#        62022
#        74515
#        87642
#        94520
#        106940
#        120510
#        133350
#        146992
#        160812
#        173209
#
# Disc length: 2475 seconds
#
# Revision: 3
# Processed by: cddbd v1.5.2PL0 Copyright (c) Steve Scherf et al.
# Submitted via: ExactAudioCopy v0.99pb5
#
DISCID=cc09a90f
DTITLE=Various Artist - Classic Country Vol. 20 1941-1951 Disc 2
DYEAR=2000
DGENRE=Country
TTITLE0=Red Foley - Tennessee Saturday Night
TTITLE1=Hank Snow - Rhumba Boogie
TTITLE2=Johnnie And Jack - Poison Love
TTITLE3=Floyd Tillman - Drivin' Nails In My Coffin
TTITLE4=Ernest Tubb - It's Been So Long Darling
TTITLE5=Ted Daffan - No Letter Today
TTITLE6=Eddy Arnold - Anytime
TTITLE7=George Morgan - Room Full Of Roses
TTITLE8=Al Dexter - Guitar Polka
TTITLE9=Merle Travis - Divorce Me C.O.D.
TTITLE10=Hoosier Hot Shots - Sioux City Sue
TTITLE11=Stuart Hamblen - (Remember Me) I'm The One Who Loves You
TTITLE12=Lefty Frizzell - I Want To Be With You Always
TTITLE13=Leon Payne - I Love You Because
TTITLE14=Hank Williams - I'm So Lonesome I Could Cry
EXTD=
EXTT0=
EXTT1=
EXTT2=
EXTT3=
EXTT4=
EXTT5=
EXTT6=
EXTT7=
EXTT8=
EXTT9=
EXTT10=
EXTT11=
EXTT12=
EXTT13=
EXTT14=
PLAYORDER=
